<svg width="22" height="24" viewBox="0 0 22 24" fill="none" xmlns="http://www.w3.org/2000/svg">
<path d="M21.6002 2.062C21.5552 1.89064 21.4654 1.73433 21.3402 1.60905C21.2149 1.48377 21.0586 1.39403 20.8872 1.349C18.836 0.81634 16.676 0.8738 14.656 1.51476C12.636 2.15572 10.8381 3.35413 9.46921 4.972L8.35321 6.296L5.74921 5.668C5.11596 5.44705 4.42415 5.46274 3.80157 5.71218C3.17899 5.96161 2.66772 6.42793 2.36221 7.025L0.162211 10.925C0.0851836 11.0616 0.0413444 11.2143 0.0342326 11.3709C0.0271207 11.5276 0.0569356 11.6837 0.12127 11.8266C0.185605 11.9696 0.282656 12.0955 0.40459 12.194C0.526524 12.2926 0.669923 12.3611 0.823211 12.394L3.89621 13.053C3.63598 13.8453 3.45018 14.6602 3.34121 15.487C3.32141 15.6388 3.33671 15.7931 3.38595 15.938C3.43519 16.083 3.51704 16.2147 3.62521 16.323L6.72521 19.423C6.81817 19.516 6.92855 19.5897 7.05003 19.64C7.17152 19.6903 7.30173 19.7161 7.43321 19.716C7.46121 19.716 7.49021 19.715 7.51921 19.712C8.3647 19.636 9.19991 19.4718 10.0112 19.222L10.6552 22.226C10.6881 22.3793 10.7566 22.5227 10.8552 22.6446C10.9538 22.7666 11.0796 22.8636 11.2226 22.9279C11.3656 22.9923 11.5217 23.0221 11.6783 23.015C11.8349 23.0079 11.9877 22.964 12.1242 22.887L16.0292 20.685C16.5789 20.351 17.0084 19.8511 17.2555 19.2572C17.5026 18.6634 17.5547 18.0064 17.4042 17.381L16.7362 14.621L17.9732 13.484C19.597 12.1187 20.7997 10.3205 21.4416 8.29852C22.0835 6.27652 22.1382 4.11383 21.5992 2.062H21.6002ZM2.57121 10.723L4.12721 7.963C4.22404 7.77576 4.38879 7.63264 4.58771 7.56292C4.78663 7.4932 5.00469 7.50217 5.19721 7.588L6.91521 8.004L6.26521 8.776C5.64874 9.5145 5.11552 10.3187 4.67521 11.174L2.57121 10.723ZM15.0412 18.945L12.3262 20.477L11.8962 18.472C12.7671 18.0378 13.5784 17.4933 14.3102 16.852L15.0532 16.169L15.4572 17.833C15.5095 18.0387 15.4976 18.2554 15.4233 18.4541C15.3489 18.6529 15.2156 18.8241 15.0412 18.945ZM16.6562 11.98L12.9712 15.366C11.5129 16.6272 9.71408 17.4288 7.80121 17.67L5.39621 15.266C5.71917 13.348 6.548 11.5508 7.79721 10.06L9.47621 8.067C9.50411 8.03799 9.53016 8.00726 9.55421 7.975L10.9892 6.27C12.0503 5.01688 13.4249 4.06779 14.9727 3.51965C16.5205 2.97151 18.186 2.84395 19.7992 3.15C20.1125 4.76823 19.9862 6.44089 19.4334 7.99372C18.8807 9.54656 17.9216 10.9228 16.6562 11.979V11.98ZM15.7332 5.816C15.4365 5.816 15.1465 5.90397 14.8999 6.06879C14.6532 6.23361 14.4609 6.46788 14.3474 6.74197C14.2339 7.01606 14.2042 7.31766 14.262 7.60863C14.3199 7.8996 14.4628 8.16688 14.6726 8.37666C14.8823 8.58644 15.1496 8.7293 15.4406 8.78717C15.7315 8.84505 16.0331 8.81535 16.3072 8.70182C16.5813 8.58828 16.8156 8.39603 16.9804 8.14935C17.1452 7.90268 17.2332 7.61267 17.2332 7.316C17.2332 6.91817 17.0752 6.53664 16.7939 6.25534C16.5126 5.97403 16.131 5.816 15.7332 5.816Z" fill="white"/>
</svg>
